# xmcd CD database file
# Copyright (C) 1993-1998 Ti Kan
#
# Track frame offsets:
#	182
#	20657
#	36982
#	56982
#	77987
#	99517
#	133045
#	148697
#	176522
#
# Disc length: 2583 seconds
#
# Revision: 1
# Processed by: cddbd v1.4b41PL1 Copyright (c) Steve Scherf et al.
# Submitted via: CDValet v3.31 - Copyright (c) 1997 Greg Leichner
#
DISCID=810a1509
DTITLE=John Lee Hooker - More Real Folks Blues - The Missing Al
DTITLE=bum
DYEAR=1900
DGENRE=
TTITLE0=This Land Is Nobody's Land
TTITLE1=Deep Blue Sea
TTITLE2=Nobody Knows
TTITLE3=Mustang Sally and GTO
TTITLE4=Lead Me
TTITLE5=Catfish
TTITLE6=I Can't Quit You Baby
TTITLE7=Want Ad Blues
TTITLE8=House Rent Blues
EXTD=
EXTT0=
EXTT1=
EXTT2=
EXTT3=
EXTT4=
EXTT5=
EXTT6=
EXTT7=
EXTT8=
PLAYORDER=
